{"title":"Falling.Skies.S05E07.HDTV.480p.x264.AAC-VYTO [P2PDL]","uid":12214126,"size":153908697,"categoryP":"video","categoryS":"hd___tv_shows","magnet":"?xt=urn:btih:9da9203cd0ea06d06520a42b7f0d94d24e0a1de0&amp;dn=Falling.Skies.S05E07.HDTV.480p.x264.AAC-VYTO+%5BP2PDL%5D&amp;tr=udp%3A%2F%2Ftracker.openbittorrent.com%3A80&amp;tr=udp%3A%2F%2Fopen.demonii.com%3A1337&amp;tr=udp%3A%2F%2Ftracker.coppersurfer.tk%3A6969&amp;tr=udp%3A%2F%2Fexodus.desync.com%3A6969","seeders":1,"leechers":0,"uploader":"ValidusVyto","files":6,"time":1439198082,"description":"____    ____ ____    ____ .___________.  ______   \n     /   /      /   / |           | /  __    \n    /   /      /   /  `---|  |----`|  |  |  | \n        /     _    _/       |  |     |  |  |  | \n       /        |  |         |  |     |  `--'  | \n    __/         |__|         |__|      ______/  \n                                                  \nPresenting Small Encodes with quality for years!\n                                                                                                   \n                                                                                                   \n\nFalling.Skies.S05E07.HDTV.480p.x264.AAC-VYTO\n\n\nGeneral\nFormat                         : MPEG-4\nFile size                      : 141 MiB\nDuration                       : 41mn 59s\nOverall bit rate               : 468 Kbps\n\nVideo\nFormat                         : AVC\nBit rate                       : 433 Kbps\nWidth                          : 720 pixels\nHeight                         : 400 pixels\nDisplay aspect ratio           : 16:9\nFrame rate mode                : Constant\nFrame rate                     : 23.976 fps\nBit depth                      : 8 bits\nStream size                    : 130 MiB (92%)\nWriting library                : x264 core 148 r2579\n\nAudio\nFormat                         : AAC\nBit rate mode                  : Variable\nBit rate                       : 32.0 Kbps\nChannel(s)                     : 2 channels \nChannel positions              : Front: L R \nSampling rate                  : 48.0 KHz\nStream size                    : 9.61 MiB (7%)\n\nScreenshots:\n &lt;a href=&quot;\nhttp://ititli.com/og&quot; rel=&quot;nofollow&quot; target=&quot;_NEW&quot;&gt;\nhttp://ititli.com/og&lt;/a&gt; &lt;a href=&quot;\nhttp://ititli.com/on&quot; rel=&quot;nofollow&quot; target=&quot;_NEW&quot;&gt;\nhttp://ititli.com/on&lt;/a&gt; &lt;a href=&quot;\nhttp://ititli.com/ow&quot; rel=&quot;nofollow&quot; target=&quot;_NEW&quot;&gt;\nhttp://ititli.com/ow&lt;/a&gt; &lt;a href=&quot;\nhttp://ititli.com/o2&quot; rel=&quot;nofollow&quot; target=&quot;_NEW&quot;&gt;\nhttp://ititli.com/o2&lt;/a&gt; &lt;a href=&quot;\nhttp://ititli.com/o6&quot; rel=&quot;nofollow&quot; target=&quot;_NEW&quot;&gt;\nhttp://ititli.com/o6&lt;/a&gt; &lt;a href=&quot;\nhttp://ititli.com/o8&quot; rel=&quot;nofollow&quot; target=&quot;_NEW&quot;&gt;\nhttp://ititli.com/o8&lt;/a&gt; &lt;a href=&quot;\nhttp://ititli.com/oe&quot; rel=&quot;nofollow&quot; target=&quot;_NEW&quot;&gt;\nhttp://ititli.com/oe&lt;/a&gt; &lt;a href=&quot;\nhttp://ititli.com/oj&quot; rel=&quot;nofollow&quot; target=&quot;_NEW&quot;&gt;\nhttp://ititli.com/oj&lt;/a&gt; &lt;a href=&quot;\nhttp://ititli.com/ok&quot; rel=&quot;nofollow&quot; target=&quot;_NEW&quot;&gt;\nhttp://ititli.com/ok&lt;/a&gt; &lt;a href=&quot;\nhttp://ititli.com/oo&quot; rel=&quot;nofollow&quot; target=&quot;_NEW&quot;&gt;\nhttp://ititli.com/oo&lt;/a&gt; &lt;a href=&quot;\nhttp://ititli.com/oG&quot; rel=&quot;nofollow&quot; target=&quot;_NEW&quot;&gt;\nhttp://ititli.com/oG&lt;/a&gt; &lt;a href=&quot;\nhttp://ititli.com/oH&quot; rel=&quot;nofollow&quot; target=&quot;_NEW&quot;&gt;\nhttp://ititli.com/oH&lt;/a&gt;\n\n----------------------------------------------------------------------------------------------------\n\n\nEncoder Notes: Looking For Early Access To Anything You Can Provide DVDScr, R5, DVDR, BluRay, Direct\nAudio, Music Releases and Seedboxes. If You Got anything to offer please contact us.\n\nSupport us by donating BC - 1FgwdzPsd1y25Gea8wP1qni35uGCtmkRCD","torrent":{"xt":"urn:btih:9da9203cd0ea06d06520a42b7f0d94d24e0a1de0","amp;dn":"Falling.Skies.S05E07.HDTV.480p.x264.AAC-VYTO+%5BP2PDL%5D","amp;tr":["udp%3A%2F%2Ftracker.openbittorrent.com%3A80","udp%3A%2F%2Fopen.demonii.com%3A1337","udp%3A%2F%2Ftracker.coppersurfer.tk%3A6969","udp%3A%2F%2Fexodus.desync.com%3A6969"],"infoHash":"9da9203cd0ea06d06520a42b7f0d94d24e0a1de0","infoHashBuffer":{"type":"Buffer","data":[157,169,32,60,208,234,6,208,101,32,164,43,127,13,148,210,78,10,29,224]},"announce":[],"urlList":[]}}